<svg class="svgicon css62" preserveAspectRatio="xMidYMid meet"
    xmlns="http://www.w3.org/2000/svg" viewBox="0 0 512 512" style="border-radius: 0%;">
    <rect x="0" y="0" width="512" height="512" style="fill: none" rx="0" ry="0"></rect>
    <g transform="scale(0.8) translate(63.999999999999986, 63.999999999999986)" transform-origin="0 0">
        <g>
            <path fill="rgb(0, 195, 124)" d="M199.8,237.3c41.4,0,75-33.6,75-75s-33.6-75-75-75c-41.4,0-75,33.6-75,75S158.4,237.3,199.8,237.3z M199.8,124.8 c20.7,0,37.5,16.8,37.5,37.5s-16.8,37.5-37.5,37.5s-37.5-16.8-37.5-37.5S179.1,124.8,199.8,124.8z"></path>
            <path fill="rgb(0, 195, 124)" d="M349.8,312.3c-14.6,0-28.5,3.7-41.2,10C285,282.3,245,256,199.8,256c-72.4,0-131.3,67.3-131.3,150v18.8h375V406 C443.5,354.3,401.4,312.3,349.8,312.3z M107.3,387.3c7.5-53.1,46.1-93.8,92.5-93.8c46.4,0,85,40.6,92.5,93.8H107.3z M329.9,387.3 c-1.2-10.6-3.3-20.8-6.3-30.6c8-4.3,16.9-6.9,26.2-6.9c24.4,0,45.3,15.7,53,37.5H329.9z"></path>
            <path fill="rgb(0, 195, 124)" d="M349.8,293.5c31,0,56.3-25.2,56.3-56.3S380.8,181,349.8,181s-56.3,25.2-56.3,56.3S318.7,293.5,349.8,293.5z M349.8,218.5 c10.3,0,18.8,8.4,18.8,18.8s-8.4,18.8-18.8,18.8c-10.3,0-18.8-8.4-18.8-18.8S339.4,218.5,349.8,218.5z"></path>
        </g>
    </g>
</svg>